<svg clip-rule="evenodd" fill-rule="evenodd" viewBox="0 0 32 25" width="25" height="25" image-rendering="optimizeQuality" shape-rendering="geometricPrecision" text-rendering="geometricPrecision" xmlns="http://www.w3.org/2000/svg"><path d="m12.014 6.184 3.536-.703.703-3.535.703 3.535 3.535.703-3.535.704-.703 3.535-.704-3.535-3.535-.704zm4.239-5.93c3.381 0 6.443 1.371 8.658 3.587a12.207 12.207 0 0 1 3.583 8.983h3.213v.724h-3.253a12.19 12.19 0 0 1-.62 2.94h3.873v.723h-4.148a12.241 12.241 0 0 1-1.745 2.94h5.893v.723h-6.52a12.207 12.207 0 0 1-8.934 3.871 12.207 12.207 0 0 1-8.935-3.87H.267v-.725h6.424c-.71-.887-1.3-1.875-1.745-2.94H.267v-.723h4.404a12.185 12.185 0 0 1-.62-2.94H.268v-.723h3.744a12.207 12.207 0 0 1 3.582-8.983 12.207 12.207 0 0 1 8.66-3.587zM5.44 16.488h7.918l1.696-2.94h-1.908l-.105-.182-2.349-4.07-2.348 4.07-.106.183h-3.46c.092 1.024.319 2.01.661 2.94zm-.705-3.663h3.09l2.555-4.429.312-.54.313.54 2.555 4.429h1.912l.442-.765.312-.542.312.542.442.765h10.79a11.486 11.486 0 0 0-3.37-8.471A11.486 11.486 0 0 0 16.253.978c-3.182 0-6.063 1.29-8.148 3.375a11.486 11.486 0 0 0-3.37 8.471zm22.992.724h-10.33l1.697 2.94h1.911l.442-.766.312-.541.313.54.442.766h4.552c.343-.93.57-1.915.662-2.94zm-.957 3.663h-3.839l1.697 2.94h.24a11.53 11.53 0 0 0 1.902-2.94zm-2.573 3.634-.089-.153L22.1 17.21h-.68l-2.008 3.48-.105.183H8.339a11.482 11.482 0 0 0 7.914 3.148c3.08 0 5.877-1.208 7.944-3.177zm-16.56-.694h11.254l1.697-2.94H18.68l-.105-.182-2.01-3.481h-.679l-2.009 3.48-.105.183H5.735a11.53 11.53 0 0 0 1.902 2.94z" fill="gold"/></svg>