<svg version="1.1" id="Layer_1" xmlns="http://www.w3.org/2000/svg" x="0" y="0" viewBox="0 0 1920 778.41" style="enable-background:new 0 0 1920 778.41" xml:space="preserve"><style>.st1{fill:#009345}</style><path style="fill:#fff" d="M0 0h1920v778.41H0z"/><path class="st1" d="m1078.02 301.43-24.37 89.05c-2.05 7.85-9.16 40.52-11.55 64.42h-2.12c-2.39-25.95-8.88-53.96-11.61-66.25l-19.46-87.21h-62l-19.46 87.21c-2.73 12.29-9.22 40.3-11.61 66.25h-2.12c-2.39-23.9-9.5-56.56-11.55-64.42l-24.37-89.05h-71.29l63.85 202.82c7.85 24.93 20.83 37.9 43.02 37.9 21.85 0 35.85-13.66 41.32-37.9l9.56-41.32c4.1-17.41 9.9-42.68 12.63-61.8h2.05c2.73 19.12 8.54 44.39 12.63 61.8l9.56 41.32c5.8 24.24 19.46 37.9 41.32 37.9 22.19 0 35.17-12.98 43.02-37.9l63.85-202.82h-71.3zM1271.21 296.31c-72.39 0-128.05 53.61-128.05 122.92 0 69.32 55.66 122.92 128.05 122.92 72.39 0 128.05-53.61 128.05-122.92s-55.66-122.92-128.05-122.92zm0 186.09c-35.51 0-63.17-27.66-63.17-63.17 0-35.51 27.66-63.17 63.17-63.17 35.51 0 63.17 27.66 63.17 63.17 0 35.52-27.66 63.17-63.17 63.17zM1664.22 401.48h-137.61v48.49h75.44c-3.69 17.82-26 35.17-56.66 35.17-42.47 0-65.22-28.68-65.22-65.9 0-35.85 27.32-63.51 64.19-63.51 25.61 0 45.07 12.98 55.66 32.78l59.07-24.24c-20.83-40.97-59.41-67.95-114.73-67.95-71.71 0-128.05 53.27-128.05 122.92 0 69.66 53.95 122.92 128.05 122.92 81.28 0 133.52-63.85 119.86-140.68z"/><path d="M650.91 155.58c-42.96 0-77.79 34.83-77.79 77.79 0 12.38 2.91 24.09 8.06 34.48l69.73 141.34 69.74-141.34a77.443 77.443 0 0 0 8.06-34.48c-.01-42.96-34.84-77.79-77.8-77.79z" style="fill:#8bc53f"/><path class="st1" d="m402.27 494.53-63.35 128.3-175.28-354.95c-19.03-38.54-3.21-85.2 35.32-104.23 38.54-19.03 85.2-3.21 104.23 35.32l99.07 200.65c14.78 29.91 14.78 65 .01 94.91zM610.96 494.53l-63.35 128.3-175.27-354.95c-19.03-38.54-3.21-85.2 35.32-104.23 38.54-19.03 85.2-3.21 104.23 35.32l99.07 200.65c14.77 29.91 14.77 65 0 94.91z"/></svg>